<?xml version="1.0" encoding="UTF-8" standalone="no"?>
<svg
   xmlns:dc="http://purl.org/dc/elements/1.1/"
   xmlns:cc="http://creativecommons.org/ns#"
   xmlns:rdf="http://www.w3.org/1999/02/22-rdf-syntax-ns#"
   xmlns:svg="http://www.w3.org/2000/svg"
   xmlns="http://www.w3.org/2000/svg"
   viewBox="0 0 468 108"
   height="108"
   width="468"
   xml:space="preserve"
   id="svg2"
   version="1.1"><metadata
     id="metadata8"><rdf:RDF><cc:Work
         rdf:about=""><dc:format>image/svg+xml</dc:format><dc:type
           rdf:resource="http://purl.org/dc/dcmitype/StillImage" /></cc:Work></rdf:RDF></metadata><defs
     id="defs6" /><g
     transform="matrix(1.3333333,0,0,-1.3333333,0,108)"
     id="g10"><g
       transform="scale(0.1)"
       id="g12"><path
         id="path14"
         style="fill:#3f7330;fill-opacity:1;fill-rule:evenodd;stroke:none"
         d="m 2691.21,471.91 v 0.391 l -12.07,7.898 -460.82,303.43 -5.27,3.402 -11.68,7.539 -18.44,12.032 -4.88,3.398 -4.89,-3.398 -178.86,-115.942 -18.44,-12.07 -21.45,-13.899 V 715.16 H 1945 l -132.15,-1.531 h -8.67 l -0.39,-9.059 -3.36,-140.039 -71.52,-48.551 -17.7,-11.679 c 0.51,-7.031 1.13,-13.949 1.88,-20.711 l 17.3,11.64 84.38,56.489 4.1,2.66 v 4.883 l 3.04,135.898 21.8,0.391 h 9.41 l 9.03,0.39 73.83,0.739 v -65.899 l 14.29,9.059 25.59,16.961 18.44,12.027 183.75,119.332 6.4,-4.531 16.92,-10.899 479.65,-315.851 12.07,-7.93 2.26,13.942 c 0.24,1.988 0.51,3.91 0.74,5.66 l -4.88,3.359" /><path
         id="path16"
         style="fill:#39b249;fill-opacity:1;fill-rule:nonzero;stroke:none"
         d="m 40.6602,447.969 v 28.91 l -5.9297,5.93 H 5.19922 l -5.1601575,-5.93 v -28.91 L 5.98047,442.809 H 35.5117 Z M 35.5117,13.5898 V 352.5 l -5.9414,5.941 H 10.3516 L 4.41016,352.5 V 13.5898 L 11.1289,7.66016 h 19.2227 z m 562.6093,0 V 239.219 c 0,38.011 -9.922,68.011 -29.68,90 -19.691,21.953 -49.3,32.972 -88.75,32.972 -25.121,0 -47.66,-6.492 -67.66,-19.382 -20,-12.809 -35.902,-30.079 -47.652,-51.719 -9.379,21.64 -24.457,38.91 -45.16,51.719 -20.739,12.89 -42.739,19.382 -65.938,19.382 -22.73,0 -43.441,-5.472 -62.191,-16.41 -18.75,-10.859 -34.289,-25.621 -46.559,-44.371 l -2.191,51.09 -5.93,5.941 H 120.16 L 114.219,352.5 V 13.5898 l 5.941,-5.92964 h 19.219 l 5.93,5.92964 V 238.59 c 0,13.32 3.171,25.859 9.531,37.66 6.449,11.871 14.851,22.23 25.16,31.09 10.391,8.832 22.031,15.711 34.84,20.629 12.82,5 25.629,7.5 38.441,7.5 29.571,0 51.489,-9.02 65.778,-27.028 14.382,-18.05 21.562,-41.101 21.562,-69.222 V 13.5898 l 5.938,-5.92964 h 19.222 l 5.938,5.92964 V 239.219 c 0,13.32 3.32,25.781 10,37.34 6.64,11.64 15.16,21.921 25.472,30.781 10.387,8.832 22.028,15.711 34.84,20.629 12.809,5 25.348,7.5 37.66,7.5 30.618,0 52.809,-8.75 66.559,-26.25 13.828,-17.5 20.781,-40.86 20.781,-70 V 13.5898 l 5.938,-5.92964 h 19.222 z" /><path
         id="path18"
         style="fill:#39b249;fill-opacity:1;fill-rule:nonzero;stroke:none"
         d="M 1156.02,13.5898 V 239.219 c 0,38.011 -9.93,68.011 -29.69,90 -19.69,21.953 -49.3,32.972 -88.75,32.972 -25.12,0 -47.658,-6.492 -67.658,-19.382 -20,-12.809 -35.902,-30.079 -47.652,-51.719 -9.379,21.64 -24.461,38.91 -45.161,51.719 -20.738,12.89 -42.73,19.382 -65.937,19.382 -22.731,0 -43.442,-5.472 -62.192,-16.41 -18.75,-10.859 -34.289,-25.621 -46.558,-44.371 l -2.192,51.09 -5.929,5.941 h -16.25 L 672.109,352.5 V 13.5898 l 5.942,-5.92964 h 19.219 l 5.929,5.92964 V 238.59 c 0,13.32 3.172,25.859 9.531,37.66 6.45,11.871 14.848,22.23 25.161,31.09 10.39,8.832 22.031,15.711 34.839,20.629 12.821,5 25.629,7.5 38.442,7.5 29.566,0 51.488,-9.02 65.777,-27.028 14.379,-18.05 21.571,-41.101 21.571,-69.222 V 13.5898 l 5.929,-5.92964 h 19.223 l 5.937,5.92964 V 239.219 c 0,13.32 3.321,25.781 10,37.34 6.641,11.64 15.161,21.921 25.469,30.781 10.391,8.832 22.031,15.711 34.844,20.629 12.808,5 25.348,7.5 37.658,7.5 30.62,0 52.81,-8.75 66.56,-26.25 13.83,-17.5 20.78,-40.86 20.78,-70 V 13.5898 l 5.94,-5.92964 h 19.22 z" /><path
         id="path20"
         style="fill:#39b249;fill-opacity:1;fill-rule:nonzero;stroke:none"
         d="m 1557.81,184.531 c 0,27.071 -3.12,51.719 -9.37,73.91 -6.17,22.258 -15.78,41.168 -28.91,56.719 -13.05,15.5 -29.92,27.418 -50.62,35.781 -20.63,8.438 -45.55,12.649 -74.69,12.649 -29.06,0 -53.99,-4.211 -74.69,-12.649 -20.74,-8.363 -37.77,-20.281 -51.09,-35.781 -13.36,-15.551 -23.09,-34.301 -29.22,-56.25 -6.17,-22 -9.22,-46.801 -9.22,-74.379 0,-26.172 3.32,-50.312 10,-72.5 6.64,-22.1912 16.88,-41.3318 30.62,-57.3396 13.83,-16.0625 31.14,-28.6719 51.88,-37.8125 20.7,-9.07031 44.88,-13.59765 72.5,-13.59765 27.58,0 51.6,4.52734 72.03,13.59765 20.51,9.1406 37.42,21.75 50.78,37.8125 13.32,16.0078 23.32,35.1484 30,57.3396 6.64,22.188 10,46.328 10,72.5 z m -30.31,0 h -0.78 c 0,-20.742 -2.62,-40.472 -7.81,-59.222 -5.24,-18.75 -13.25,-35.1488 -24.07,-49.2192 -10.86,-14.0585 -24.64,-25.3085 -41.4,-33.75 -16.8,-8.3593 -36.53,-12.5 -59.22,-12.5 -22.74,0 -42.46,4.1407 -59.22,12.5 -16.8,8.4415 -30.74,19.6915 -41.88,33.75 -11.05,14.0704 -19.29,30.4692 -24.68,49.2192 -5.43,18.75 -8.13,38.48 -8.13,59.222 0,21.641 2.54,41.879 7.66,60.629 5.19,18.75 13.2,34.879 24.06,48.43 10.94,13.64 24.88,24.262 41.88,31.879 17.07,7.691 37.42,11.562 61.09,11.562 23.63,0 43.83,-3.871 60.62,-11.562 16.76,-7.617 30.47,-18.36 41.1,-32.188 10.62,-13.871 18.36,-30.082 23.28,-48.59 5,-18.441 7.5,-38.519 7.5,-60.16 z" /><path
         id="path22"
         style="fill:#39b249;fill-opacity:1;fill-rule:nonzero;stroke:none"
         d="m 1847.11,92.0313 c 0,20.6987 -4.61,37.5777 -13.75,50.6287 -9.06,13.121 -20.43,23.981 -34.06,32.649 -13.56,8.64 -28.36,16.14 -44.38,22.5 -16.05,6.453 -30.86,13.211 -44.37,20.312 -13.56,7.188 -24.93,15.707 -34.07,25.629 -9.06,9.879 -13.59,22.969 -13.59,39.219 0,10.312 2.19,18.91 6.56,25.781 4.46,6.949 10.24,12.539 17.35,16.719 7.18,4.14 15.19,7.109 24.06,8.91 8.94,1.75 17.85,2.652 26.72,2.652 9.37,0 18.94,-1.011 28.75,-2.972 9.88,-1.989 19.14,-4.137 27.81,-6.399 8.63,-2.191 16.29,-4.301 22.97,-6.25 6.64,-2 11.48,-2.969 14.53,-2.969 0.94,0 1.76,0.7 2.5,2.18 0.7,1.57 1.09,2.82 1.09,3.758 v 21.402 l -4.37,5.309 c -14.81,4.379 -30.24,7.539 -46.25,9.531 -16.06,1.957 -31.72,2.969 -47.03,2.969 -12.81,0 -25.55,-1.36 -38.13,-4.059 -12.61,-2.73 -23.86,-7.301 -33.75,-13.75 -9.8,-6.371 -17.77,-14.761 -23.9,-25.16 -6.18,-10.312 -9.22,-22.891 -9.22,-37.652 0,-21.25 4.53,-38.438 13.59,-51.559 9.14,-13.051 20.51,-23.988 34.06,-32.82 13.52,-8.86 28.32,-16.399 44.38,-22.649 16.01,-6.171 30.82,-12.66 44.37,-19.531 13.64,-6.879 25,-15.16 34.07,-24.851 9.14,-9.61 13.75,-22.297 13.75,-38.1176 0,-11.8008 -2.62,-21.8008 -7.82,-30 -5.23,-8.1328 -12.03,-14.6523 -20.46,-19.5312 -8.36,-4.9297 -17.74,-8.5196 -28.13,-10.7891 -10.31,-2.1797 -20.39,-3.2813 -30.16,-3.2813 -12.42,0 -22.46,0.629 -30.15,1.879 -7.62,1.25 -14.49,2.9726 -20.63,5.1601 -6.17,2.1797 -12.46,4.7227 -18.9,7.6524 -6.37,3.0078 -14.22,6.25 -23.6,9.6875 -3.43,0 -5.15,-1.9883 -5.15,-5.9375 V 23.9102 l 3.59,-4.3789 c 13.32,-5.4297 28.63,-9.4922 45.94,-12.19146 17.26,-2.6914 33.05,-4.05859 47.34,-4.05859 14.38,0 28.6,1.48828 42.66,4.37891 14.06,2.89064 26.72,7.96094 37.97,15.14844 11.32,7.1914 20.47,16.4531 27.34,27.8125 6.95,11.3281 10.47,25.1602 10.47,41.4102 z" /><path
         id="path24"
         style="fill:#39b249;fill-opacity:1;fill-rule:nonzero;stroke:none"
         d="M 2210.23,13.5898 V 239.219 c 0,21.761 -3.35,40.39 -10,55.941 -6.68,15.5 -16.21,28.199 -28.59,38.121 -12.3,9.879 -26.84,17.188 -43.59,21.879 -16.8,4.68 -35.55,7.031 -56.25,7.031 -23.68,0 -46.1,-4.851 -67.35,-14.531 -21.25,-9.609 -38.75,-24.5 -52.5,-44.691 v 261.09 l -5.93,5.941 h -19.22 l -5.94,-5.941 V 13.5898 l 5.94,-5.92964 h 19.22 l 5.93,5.92964 V 240.781 c 0,14.258 3.91,27.188 11.72,38.75 7.89,11.641 17.81,21.641 29.69,30 11.87,8.438 24.84,14.848 38.91,19.219 14.06,4.449 27.22,6.719 39.53,6.719 15.31,0 29.45,-1.989 42.5,-5.938 13.12,-3.98 24.45,-10 34.06,-18.121 9.57,-8.129 17.07,-18.129 22.5,-30 5.51,-11.801 8.28,-25.859 8.28,-42.191 V 13.5898 l 5.94,-5.92964 h 19.22 z" /><path
         id="path26"
         style="fill:#39b249;fill-opacity:1;fill-rule:nonzero;stroke:none"
         d="m 2573.63,194.059 c 0,22.269 -2.11,43.519 -6.25,63.75 -4.18,20.203 -11.21,38.171 -21.09,53.91 -9.92,15.82 -23.36,28.441 -40.31,37.812 -17,9.379 -38.36,14.059 -64.07,14.059 -25.62,0 -48.36,-4.211 -68.12,-12.649 -19.69,-8.363 -36.21,-19.921 -49.53,-34.691 -13.36,-14.801 -23.44,-32.578 -30.31,-53.281 -6.88,-20.739 -10.32,-43.438 -10.32,-68.129 0,-28.551 2.7,-54.531 8.13,-77.961 5.39,-23.4376 14.26,-43.5587 26.56,-60.3204 12.38,-16.7891 28.79,-29.8398 49.22,-39.2188 20.51,-9.37105 46.09,-14.05855 76.72,-14.05855 8.83,0 18.16,0.62891 27.97,1.87891 9.88,1.16797 19.76,2.80859 29.68,5.00004 9.89,2.2617 19.61,5.1484 29.22,8.5898 9.57,3.4414 18.05,7.3789 25.47,11.8711 l 2.97,5.1602 c 0,1.4492 0.08,3.6289 0.31,6.5585 0.32,3.0118 0.32,5.9805 0,8.9102 -0.23,3.0117 -0.7,5.6992 -1.4,8.1289 -0.75,2.5 -2.11,3.7422 -4.07,3.7422 -0.93,0 -4.76,-1.7109 -11.4,-5.1523 -6.68,-3.4375 -15.24,-7.3086 -25.63,-11.5586 -10.31,-4.1797 -21.79,-7.9688 -34.37,-11.4102 -12.62,-3.4414 -25.55,-5.1602 -38.75,-5.1602 -23.24,0 -43.05,3.9493 -59.38,11.879 -16.25,7.8906 -29.61,18.6328 -40,32.1914 -10.31,13.5117 -17.93,29.5308 -22.81,47.9688 -4.92,18.512 -7.34,38.672 -7.34,60.461 42.38,0 84.53,0.551 126.4,1.719 41.96,1.25 84.14,2.66 126.57,4.222 z m -31.09,21.562 c -34.49,-2.5 -68.87,-4.141 -103.13,-4.84 -34.29,-0.742 -68.71,-1.09 -103.28,-1.09 h -21.4 c 0.39,18.2 3.67,35.188 9.84,50.93 6.25,15.828 14.88,29.258 25.94,40.32 11.13,11.129 24.45,19.918 40,26.399 15.51,6.449 32.65,9.691 51.4,9.691 16.76,0 31.45,-3.511 44.07,-10.472 12.57,-6.868 22.97,-16.168 31.09,-27.809 8.13,-11.559 14.26,-24.648 18.44,-39.219 4.26,-14.492 6.6,-29.14 7.03,-43.91 z" /><path
         id="path28"
         style="fill:#39b249;fill-opacity:1;fill-rule:nonzero;stroke:none"
         d="m 2937.85,194.059 c 0,22.269 -2.11,43.519 -6.25,63.75 -4.18,20.203 -11.21,38.171 -21.09,53.91 -9.92,15.82 -23.36,28.441 -40.31,37.812 -17,9.379 -38.36,14.059 -64.07,14.059 -25.62,0 -48.36,-4.211 -68.12,-12.649 -19.69,-8.363 -36.21,-19.921 -49.53,-34.691 -13.36,-14.801 -23.44,-32.578 -30.32,-53.281 -6.87,-20.739 -10.31,-43.438 -10.31,-68.129 0,-28.551 2.7,-54.531 8.13,-77.961 5.39,-23.4376 14.25,-43.5587 26.56,-60.3204 12.38,-16.7891 28.79,-29.8398 49.22,-39.2188 20.51,-9.37105 46.09,-14.05855 76.72,-14.05855 8.82,0 18.16,0.62891 27.97,1.87891 9.88,1.16797 19.76,2.80859 29.68,5.00004 9.89,2.2617 19.61,5.1484 29.22,8.5898 9.57,3.4414 18.05,7.3789 25.47,11.8711 l 2.97,5.1602 c 0,1.4492 0.08,3.6289 0.31,6.5585 0.31,3.0118 0.31,5.9805 0,8.9102 -0.23,3.0117 -0.7,5.6992 -1.4,8.1289 -0.75,2.5 -2.11,3.7422 -4.07,3.7422 -0.93,0 -4.76,-1.7109 -11.4,-5.1523 -6.68,-3.4375 -15.24,-7.3086 -25.63,-11.5586 -10.31,-4.1797 -21.8,-7.9688 -34.37,-11.4102 -12.62,-3.4414 -25.55,-5.1602 -38.75,-5.1602 -23.25,0 -43.05,3.9493 -59.38,11.879 -16.25,7.8906 -29.61,18.6328 -40,32.1914 -10.31,13.5117 -17.93,29.5308 -22.81,47.9688 -4.92,18.512 -7.34,38.672 -7.34,60.461 42.38,0 84.53,0.551 126.4,1.719 41.95,1.25 84.14,2.66 126.56,4.222 z m -31.09,21.562 c -34.49,-2.5 -68.87,-4.141 -103.13,-4.84 -34.29,-0.742 -68.71,-1.09 -103.28,-1.09 h -21.4 c 0.39,18.2 3.67,35.188 9.84,50.93 6.25,15.828 14.88,29.258 25.94,40.32 11.13,11.129 24.45,19.918 40,26.399 15.5,6.449 32.65,9.691 51.4,9.691 16.76,0 31.45,-3.511 44.07,-10.472 12.57,-6.868 22.96,-16.168 31.09,-27.809 8.12,-11.559 14.26,-24.648 18.44,-39.219 4.25,-14.492 6.6,-29.14 7.03,-43.91 z" /><path
         id="path30"
         style="fill:#39b249;fill-opacity:1;fill-rule:nonzero;stroke:none"
         d="m 3224.26,28.4414 c 0,1.4375 0.08,3.6289 0.31,6.5586 0.31,3.0117 0.31,5.9805 0,8.9102 -0.23,2.8906 -0.7,5.6211 -1.41,8.1211 -0.74,2.5 -2.11,3.75 -4.06,3.75 -1.99,0 -5.47,-1.3711 -10.47,-4.0625 -4.92,-2.7383 -10.86,-5.6993 -17.81,-8.9102 -6.87,-3.2383 -14.65,-6.207 -23.28,-8.8984 -8.56,-2.7383 -17.5,-4.0704 -26.88,-4.0704 -11.87,0 -21.68,2.4297 -29.37,7.3516 -7.62,5 -13.67,11.3984 -18.13,19.2188 -4.37,7.8906 -7.46,16.9101 -9.21,27.0312 -1.68,10.1875 -2.5,20.1876 -2.5,29.9996 v 205.778 h 125.78 l 5.93,5.941 v 16.25 l -6.71,5.93 h -125 v 104.379 l -6.72,5.781 h -14.85 l -5.78,-5.781 c -0.55,-17.309 -0.94,-34.688 -1.25,-52.188 -0.23,-17.5 -0.78,-34.922 -1.72,-52.191 h -51.09 l -5.94,-5.93 v -16.25 l 6.72,-5.941 h 50.94 V 113.441 c 0,-16.2496 1.33,-31.2105 4.06,-44.8512 2.7,-13.5507 7.38,-25.1093 14.06,-34.6796 6.64,-9.6094 15.78,-17.1094 27.35,-22.5 11.64,-5.39067 26.32,-8.12895 44.06,-8.12895 12.38,0 26.09,1.71875 41.09,5.16016 15.08,3.43749 28.05,8.58989 38.91,15.46879 z" /><path
         id="path32"
         style="fill:#39b249;fill-opacity:1;fill-rule:nonzero;stroke:none"
         d="m 3509.22,92.0313 c 0,20.6987 -4.61,37.5777 -13.75,50.6287 -9.06,13.121 -20.43,23.981 -34.06,32.649 -13.56,8.64 -28.36,16.14 -44.38,22.5 -16.05,6.453 -30.86,13.211 -44.37,20.312 -13.56,7.188 -24.93,15.707 -34.07,25.629 -9.06,9.879 -13.59,22.969 -13.59,39.219 0,10.312 2.19,18.91 6.56,25.781 4.46,6.949 10.24,12.539 17.35,16.719 7.18,4.14 15.19,7.109 24.06,8.91 8.94,1.75 17.85,2.652 26.72,2.652 9.37,0 18.94,-1.011 28.75,-2.972 9.88,-1.989 19.14,-4.137 27.81,-6.399 8.63,-2.191 16.29,-4.301 22.97,-6.25 6.64,-2 11.48,-2.969 14.53,-2.969 0.94,0 1.76,0.7 2.5,2.18 0.7,1.57 1.09,2.82 1.09,3.758 v 21.402 l -4.37,5.309 c -14.81,4.379 -30.24,7.539 -46.25,9.531 -16.06,1.957 -31.72,2.969 -47.03,2.969 -12.81,0 -25.55,-1.36 -38.13,-4.059 -12.61,-2.73 -23.86,-7.301 -33.75,-13.75 -9.8,-6.371 -17.77,-14.761 -23.9,-25.16 -6.18,-10.312 -9.22,-22.891 -9.22,-37.652 0,-21.25 4.53,-38.438 13.59,-51.559 9.14,-13.051 20.51,-23.988 34.06,-32.82 13.52,-8.86 28.32,-16.399 44.38,-22.649 16.01,-6.171 30.82,-12.66 44.37,-19.531 13.64,-6.879 25,-15.16 34.07,-24.851 9.14,-9.61 13.75,-22.297 13.75,-38.1176 0,-11.8008 -2.62,-21.8008 -7.82,-30 -5.23,-8.1328 -12.03,-14.6523 -20.47,-19.5312 -8.35,-4.9297 -17.73,-8.5196 -28.12,-10.7891 -10.31,-2.1797 -20.39,-3.2813 -30.16,-3.2813 -12.42,0 -22.46,0.629 -30.15,1.879 -7.62,1.25 -14.49,2.9726 -20.63,5.1601 -6.17,2.1797 -12.46,4.7227 -18.9,7.6524 -6.37,3.0078 -14.22,6.25 -23.6,9.6875 -3.44,0 -5.15,-1.9883 -5.15,-5.9375 V 23.9102 l 3.59,-4.3789 c 13.32,-5.4297 28.63,-9.4922 45.94,-12.19146 17.26,-2.6914 33.04,-4.05859 47.34,-4.05859 14.38,0 28.6,1.48828 42.66,4.37891 14.06,2.89064 26.72,7.96094 37.97,15.14844 11.32,7.1914 20.47,16.4531 27.34,27.8125 6.95,11.3281 10.47,25.1602 10.47,41.4102 z" /></g></g></svg>